<?xml version="1.0" encoding="utf-8" standalone="no"?>
<!DOCTYPE svg PUBLIC "-//W3C//DTD SVG 1.1//EN"
  "http://www.w3.org/Graphics/SVG/1.1/DTD/svg11.dtd">
<svg xmlns:xlink="http://www.w3.org/1999/xlink" width="583.002pt" height="273.807719pt" viewBox="0 0 583.002 273.807719" xmlns="http://www.w3.org/2000/svg" version="1.1">
 <metadata>
  <rdf:RDF xmlns:dc="http://purl.org/dc/elements/1.1/" xmlns:cc="http://creativecommons.org/ns#" xmlns:rdf="http://www.w3.org/1999/02/22-rdf-syntax-ns#">
   <cc:Work>
    <dc:type rdf:resource="http://purl.org/dc/dcmitype/StillImage"/>
    <dc:date>2026-07-11T20:55:38.609442</dc:date>
    <dc:format>image/svg+xml</dc:format>
    <dc:creator>
     <cc:Agent>
      <dc:title>Matplotlib v3.10.9, https://matplotlib.org/</dc:title>
     </cc:Agent>
    </dc:creator>
   </cc:Work>
  </rdf:RDF>
 </metadata>
 <defs>
  <style type="text/css">*{stroke-linejoin: round; stroke-linecap: butt}</style>
 </defs>
 <g id="figure_1">
  <g id="patch_1">
   <path d="M 0 273.807719 
L 583.002 273.807719 
L 583.002 0 
L 0 0 
z
" style="fill: #ffffff"/>
  </g>
  <g id="axes_1">
   <g id="patch_2">
    <path d="M 25.882637 129.190439 
L 134.729306 129.190439 
Q 137.97846 129.190439 137.97846 125.937959 
L 137.97846 49.504679 
Q 137.97846 46.252199 134.729306 46.252199 
L 25.882637 46.252199 
Q 22.633483 46.252199 22.633483 49.504679 
L 22.633483 125.937959 
Q 22.633483 129.190439 25.882637 129.190439 
z
" clip-path="url(#p3d474250b3)" style="fill: #f8fafc; stroke: #55a868; stroke-width: 1.4; stroke-linejoin: miter"/>
   </g>
   <g id="patch_3">
    <path d="M 81.293568 128.531789 
Q 210.270068 148.704994 338.141963 168.705429 
" clip-path="url(#p3d474250b3)" style="fill: none; stroke: #64748b; stroke-linecap: round"/>
    <path d="M 334.134785 165.851918 
L 338.141963 168.705429 
L 333.454848 170.199065 
z
" clip-path="url(#p3d474250b3)" style="fill: #64748b; stroke: #64748b; stroke-linecap: round"/>
   </g>
   <g id="patch_4">
    <path d="M 155.848809 129.190439 
L 264.695477 129.190439 
Q 267.944631 129.190439 267.944631 125.937959 
L 267.944631 49.504679 
Q 267.944631 46.252199 264.695477 46.252199 
L 155.848809 46.252199 
Q 152.599654 46.252199 152.599654 49.504679 
L 152.599654 125.937959 
Q 152.599654 129.190439 155.848809 129.190439 
z
" clip-path="url(#p3d474250b3)" style="fill: #f8fafc; stroke: #4c72b0; stroke-width: 1.4; stroke-linejoin: miter"/>
   </g>
   <g id="patch_5">
    <path d="M 211.22801 128.676333 
Q 275.254807 148.705187 338.21456 168.400248 
" clip-path="url(#p3d474250b3)" style="fill: none; stroke: #64748b; stroke-linecap: round"/>
    <path d="M 334.672047 164.98695 
L 338.21456 168.400248 
L 333.358413 169.186279 
z
" clip-path="url(#p3d474250b3)" style="fill: #64748b; stroke: #64748b; stroke-linecap: round"/>
   </g>
   <g id="patch_6">
    <path d="M 285.81498 129.190439 
L 394.661649 129.190439 
Q 397.910803 129.190439 397.910803 125.937959 
L 397.910803 49.504679 
Q 397.910803 46.252199 394.661649 46.252199 
L 285.81498 46.252199 
Q 282.565826 46.252199 282.565826 49.504679 
L 282.565826 125.937959 
Q 282.565826 129.190439 285.81498 129.190439 
z
" clip-path="url(#p3d474250b3)" style="fill: #f8fafc; stroke: #dd8452; stroke-width: 1.4; stroke-linejoin: miter"/>
   </g>
   <g id="patch_7">
    <path d="M 340.238314 129.37486 
Q 340.238314 148.703033 340.238314 166.913173 
" clip-path="url(#p3d474250b3)" style="fill: none; stroke: #64748b; stroke-linecap: round"/>
    <path d="M 342.438314 162.513173 
L 340.238314 166.913173 
L 338.038314 162.513173 
z
" clip-path="url(#p3d474250b3)" style="fill: #64748b; stroke: #64748b; stroke-linecap: round"/>
   </g>
   <g id="patch_8">
    <path d="M 293.937866 214.568039 
L 419.030306 214.568039 
Q 422.27946 214.568039 422.27946 211.315559 
L 422.27946 155.210279 
Q 422.27946 151.957799 419.030306 151.957799 
L 293.937866 151.957799 
Q 290.688711 151.957799 290.688711 155.210279 
L 290.688711 211.315559 
Q 290.688711 214.568039 293.937866 214.568039 
z
" clip-path="url(#p3d474250b3)" style="fill: #fef3c7; stroke: #dd8452; stroke-width: 1.5; stroke-linejoin: miter"/>
   </g>
   <g id="patch_9">
    <path d="M 422.470633 183.262919 
Q 437.713063 183.262919 451.502049 183.262919 
" clip-path="url(#p3d474250b3)" style="fill: none; stroke: #1f2933; stroke-width: 1.3; stroke-linecap: round"/>
    <path d="M 447.102049 181.062919 
L 451.502049 183.262919 
L 447.102049 185.462919 
z
" clip-path="url(#p3d474250b3)" style="fill: #1f2933; stroke: #1f2933; stroke-width: 1.3; stroke-linecap: round"/>
   </g>
   <g id="patch_10">
    <path d="M 456.39558 214.568039 
L 557.119363 214.568039 
Q 560.368517 214.568039 560.368517 211.315559 
L 560.368517 155.210279 
Q 560.368517 151.957799 557.119363 151.957799 
L 456.39558 151.957799 
Q 453.146426 151.957799 453.146426 155.210279 
L 453.146426 211.315559 
Q 453.146426 214.568039 456.39558 214.568039 
z
" clip-path="url(#p3d474250b3)" style="fill: #d9f0df; stroke: #55a868; stroke-width: 1.5; stroke-linejoin: miter"/>
   </g>
   <g id="text_1">
    <text style="font-size: 9px; font-family: 'Arial', 'Helvetica', 'DejaVu Sans', sans-serif; fill: #1f2933" transform="translate(59.046284 75.650631)">Qwen3-VL</text>
    <text style="font-size: 9px; font-family: 'Arial', 'Helvetica', 'DejaVu Sans', sans-serif; fill: #1f2933" transform="translate(63.298081 85.169819)">Thinking</text>
    <text style="font-size: 9px; font-family: 'Arial', 'Helvetica', 'DejaVu Sans', sans-serif; fill: #1f2933" transform="translate(60.299253 94.794475)">structured</text>
    <text style="font-size: 9px; font-family: 'Arial', 'Helvetica', 'DejaVu Sans', sans-serif; fill: #1f2933" transform="translate(55.797143 104.445287)">math / steps</text>
   </g>
   <g id="text_2">
    <text style="font-size: 9px; font-family: 'Arial', 'Helvetica', 'DejaVu Sans', sans-serif; fill: #1f2933" transform="translate(193.262143 80.476037)">InternVL</text>
    <text style="font-size: 9px; font-family: 'Arial', 'Helvetica', 'DejaVu Sans', sans-serif; fill: #1f2933" transform="translate(195.518471 89.995225)">charts /</text>
    <text style="font-size: 9px; font-family: 'Arial', 'Helvetica', 'DejaVu Sans', sans-serif; fill: #1f2933" transform="translate(180.010346 99.514412)">visual analytics</text>
   </g>
   <g id="text_3">
    <text style="font-size: 9px; font-family: 'Arial', 'Helvetica', 'DejaVu Sans', sans-serif; fill: #1f2933" transform="translate(312.226517 80.359037)">HunyuanOCR</text>
    <text style="font-size: 9px; font-family: 'Arial', 'Helvetica', 'DejaVu Sans', sans-serif; fill: #1f2933" transform="translate(316.732846 90.122069)">OCR-heavy</text>
    <text style="font-size: 9px; font-family: 'Arial', 'Helvetica', 'DejaVu Sans', sans-serif; fill: #1f2933" transform="translate(314.231127 99.746725)">text-in-image</text>
   </g>
   <g id="text_4">
    <text style="font-size: 10px; font-family: 'Arial', 'Helvetica', 'DejaVu Sans', sans-serif; fill: #1f2933" transform="translate(327.117679 180.424169)">Offline traces</text>
    <text style="font-size: 10px; font-family: 'Arial', 'Helvetica', 'DejaVu Sans', sans-serif; fill: #1f2933" transform="translate(320.642679 191.154794)">(image, Q, R, A)</text>
   </g>
   <g id="text_5">
    <text style="font-size: 10px; font-family: 'Arial', 'Helvetica', 'DejaVu Sans', sans-serif; fill: #1f2933" transform="translate(489.522315 180.559637)">Student</text>
    <text style="font-size: 10px; font-family: 'Arial', 'Helvetica', 'DejaVu Sans', sans-serif; fill: #1f2933" transform="translate(490.641846 191.136512)">SiQ-VL</text>
   </g>
   <g id="text_6">
    <text style="font-size: 9px; font-family: 'Arial', 'Helvetica', 'DejaVu Sans', sans-serif; text-anchor: middle; fill: #64748b" x="291.501" y="244.246919" transform="rotate(-0 291.501 244.246919)">No teacher on the training GPU. Diversity of teachers &gt; one giant teacher under a memory wall.</text>
   </g>
   <g id="text_7">
    <text style="font-size: 13px; font-family: 'Arial', 'Helvetica', 'DejaVu Sans', sans-serif; text-anchor: middle; fill: #1f2933" x="291.501" y="16.671719" transform="rotate(-0 291.501 16.671719)">Offline CoT: pay teacher cost once, train the student many times</text>
   </g>
  </g>
 </g>
 <defs>
  <clipPath id="p3d474250b3">
   <rect x="7.2" y="22.671719" width="568.602" height="243.936"/>
  </clipPath>
 </defs>
</svg>
