<?xml version="1.0" encoding="utf-8" standalone="no"?>
<!DOCTYPE svg PUBLIC "-//W3C//DTD SVG 1.1//EN"
  "http://www.w3.org/Graphics/SVG/1.1/DTD/svg11.dtd">
<svg xmlns:xlink="http://www.w3.org/1999/xlink" width="720pt" height="360pt" viewBox="0 0 720 360" xmlns="http://www.w3.org/2000/svg" version="1.1">
 <metadata>
  <rdf:RDF xmlns:dc="http://purl.org/dc/elements/1.1/" xmlns:cc="http://creativecommons.org/ns#" xmlns:rdf="http://www.w3.org/1999/02/22-rdf-syntax-ns#">
   <cc:Work>
    <dc:type rdf:resource="http://purl.org/dc/dcmitype/StillImage"/>
    <dc:date>2026-08-03T00:47:15.546331</dc:date>
    <dc:format>image/svg+xml</dc:format>
    <dc:creator>
     <cc:Agent>
      <dc:title>Matplotlib v3.10.9, https://matplotlib.org/</dc:title>
     </cc:Agent>
    </dc:creator>
   </cc:Work>
  </rdf:RDF>
 </metadata>
 <defs>
  <style type="text/css">*{stroke-linejoin: round; stroke-linecap: butt}</style>
 </defs>
 <g id="figure_1">
  <g id="patch_1">
   <path d="M 0 360 
L 720 360 
L 720 0 
L 0 0 
z
" style="fill: #ffffff"/>
  </g>
  <g id="axes_1">
   <g id="patch_2">
    <path d="M 63.40176 204.68832 
L 144.86184 204.68832 
Q 148.34304 204.68832 148.34304 201.48672 
L 148.34304 171.39168 
Q 148.34304 168.19008 144.86184 168.19008 
L 63.40176 168.19008 
Q 59.92056 168.19008 59.92056 171.39168 
L 59.92056 201.48672 
Q 59.92056 204.68832 63.40176 204.68832 
z
" clip-path="url(#p9e4cbda45b)" style="fill: #eef1f4; stroke: #64748b; stroke-width: 1.4; stroke-linejoin: miter"/>
   </g>
   <g id="patch_3">
    <path d="M 202.64976 137.45472 
L 301.51584 137.45472 
Q 304.99704 137.45472 304.99704 134.25312 
L 304.99704 107.35968 
Q 304.99704 104.15808 301.51584 104.15808 
L 202.64976 104.15808 
Q 199.16856 104.15808 199.16856 107.35968 
L 199.16856 134.25312 
Q 199.16856 137.45472 202.64976 137.45472 
z
" clip-path="url(#p9e4cbda45b)" style="fill: #e8eef7; stroke: #4c72b0; stroke-width: 1.4; stroke-linejoin: miter"/>
   </g>
   <g id="patch_4">
    <path d="M 362.78496 137.45472 
L 461.65104 137.45472 
Q 465.13224 137.45472 465.13224 134.25312 
L 465.13224 107.35968 
Q 465.13224 104.15808 461.65104 104.15808 
L 362.78496 104.15808 
Q 359.30376 104.15808 359.30376 107.35968 
L 359.30376 134.25312 
Q 359.30376 137.45472 362.78496 137.45472 
z
" clip-path="url(#p9e4cbda45b)" style="fill: #e7f1ea; stroke: #55a868; stroke-width: 1.4; stroke-linejoin: miter"/>
   </g>
   <g id="patch_5">
    <path d="M 148.888189 185.191448 
Q 173.754999 153.783892 197.650196 123.603514 
" clip-path="url(#p9e4cbda45b)" style="fill: none; stroke: #94a3b8; stroke-width: 1.4; stroke-linecap: round"/>
    <path d="M 192.383901 126.066468 
L 197.650196 123.603514 
L 196.460782 129.294322 
z
" clip-path="url(#p9e4cbda45b)" style="fill: #94a3b8; stroke: #94a3b8; stroke-width: 1.4; stroke-linecap: round"/>
   </g>
   <g id="patch_6">
    <path d="M 306.30317 120.8064 
Q 332.150341 120.8064 356.432264 120.8064 
" clip-path="url(#p9e4cbda45b)" style="fill: none; stroke: #94a3b8; stroke-width: 1.4; stroke-linecap: round"/>
    <path d="M 351.232264 118.2064 
L 356.432264 120.8064 
L 351.232264 123.4064 
z
" clip-path="url(#p9e4cbda45b)" style="fill: #94a3b8; stroke: #94a3b8; stroke-width: 1.4; stroke-linecap: round"/>
   </g>
   <g id="patch_7">
    <path d="M 465.887208 122.181091 
Q 499.248561 153.783411 531.473564 184.309298 
" clip-path="url(#p9e4cbda45b)" style="fill: none; stroke: #94a3b8; stroke-width: 1.4; stroke-linecap: round"/>
    <path d="M 529.486472 178.845648 
L 531.473564 184.309298 
L 525.910389 182.620781 
z
" clip-path="url(#p9e4cbda45b)" style="fill: #94a3b8; stroke: #94a3b8; stroke-width: 1.4; stroke-linecap: round"/>
   </g>
   <g id="patch_8">
    <path d="M 202.64976 204.68832 
L 301.51584 204.68832 
Q 304.99704 204.68832 304.99704 201.48672 
L 304.99704 174.59328 
Q 304.99704 171.39168 301.51584 171.39168 
L 202.64976 171.39168 
Q 199.16856 171.39168 199.16856 174.59328 
L 199.16856 201.48672 
Q 199.16856 204.68832 202.64976 204.68832 
z
" clip-path="url(#p9e4cbda45b)" style="fill: #e8eef7; stroke: #4c72b0; stroke-width: 1.4; stroke-linejoin: miter"/>
   </g>
   <g id="patch_9">
    <path d="M 362.78496 204.68832 
L 461.65104 204.68832 
Q 465.13224 204.68832 465.13224 201.48672 
L 465.13224 174.59328 
Q 465.13224 171.39168 461.65104 171.39168 
L 362.78496 171.39168 
Q 359.30376 171.39168 359.30376 174.59328 
L 359.30376 201.48672 
Q 359.30376 204.68832 362.78496 204.68832 
z
" clip-path="url(#p9e4cbda45b)" style="fill: #e7f1ea; stroke: #55a868; stroke-width: 1.4; stroke-linejoin: miter"/>
   </g>
   <g id="patch_10">
    <path d="M 149.645133 186.808369 
Q 173.75419 187.399641 196.29847 187.952536 
" clip-path="url(#p9e4cbda45b)" style="fill: none; stroke: #94a3b8; stroke-width: 1.4; stroke-linecap: round"/>
    <path d="M 191.163779 185.225827 
L 196.29847 187.952536 
L 191.036288 190.424264 
z
" clip-path="url(#p9e4cbda45b)" style="fill: #94a3b8; stroke: #94a3b8; stroke-width: 1.4; stroke-linecap: round"/>
   </g>
   <g id="patch_11">
    <path d="M 306.30317 188.04 
Q 332.150341 188.04 356.432264 188.04 
" clip-path="url(#p9e4cbda45b)" style="fill: none; stroke: #94a3b8; stroke-width: 1.4; stroke-linecap: round"/>
    <path d="M 351.232264 185.44 
L 356.432264 188.04 
L 351.232264 190.64 
z
" clip-path="url(#p9e4cbda45b)" style="fill: #94a3b8; stroke: #94a3b8; stroke-width: 1.4; stroke-linecap: round"/>
   </g>
   <g id="patch_12">
    <path d="M 466.43752 188.003185 
Q 499.247878 187.399682 530.493253 186.824966 
" clip-path="url(#p9e4cbda45b)" style="fill: none; stroke: #94a3b8; stroke-width: 1.4; stroke-linecap: round"/>
    <path d="M 525.246317 184.321036 
L 530.493253 186.824966 
L 525.341948 189.520157 
z
" clip-path="url(#p9e4cbda45b)" style="fill: #94a3b8; stroke: #94a3b8; stroke-width: 1.4; stroke-linecap: round"/>
   </g>
   <g id="patch_13">
    <path d="M 202.64976 271.92192 
L 301.51584 271.92192 
Q 304.99704 271.92192 304.99704 268.72032 
L 304.99704 241.82688 
Q 304.99704 238.62528 301.51584 238.62528 
L 202.64976 238.62528 
Q 199.16856 238.62528 199.16856 241.82688 
L 199.16856 268.72032 
Q 199.16856 271.92192 202.64976 271.92192 
z
" clip-path="url(#p9e4cbda45b)" style="fill: #e8eef7; stroke: #4c72b0; stroke-width: 1.4; stroke-linejoin: miter"/>
   </g>
   <g id="patch_14">
    <path d="M 362.78496 271.92192 
L 461.65104 271.92192 
Q 465.13224 271.92192 465.13224 268.72032 
L 465.13224 241.82688 
Q 465.13224 238.62528 461.65104 238.62528 
L 362.78496 238.62528 
Q 359.30376 238.62528 359.30376 241.82688 
L 359.30376 268.72032 
Q 359.30376 271.92192 362.78496 271.92192 
z
" clip-path="url(#p9e4cbda45b)" style="fill: #e7f1ea; stroke: #55a868; stroke-width: 1.4; stroke-linejoin: miter"/>
   </g>
   <g id="patch_15">
    <path d="M 148.859504 188.350526 
Q 173.755873 221.016576 197.703442 252.437723 
" clip-path="url(#p9e4cbda45b)" style="fill: none; stroke: #94a3b8; stroke-width: 1.4; stroke-linecap: round"/>
    <path d="M 196.61926 246.725933 
L 197.703442 252.437723 
L 192.483501 249.877994 
z
" clip-path="url(#p9e4cbda45b)" style="fill: #94a3b8; stroke: #94a3b8; stroke-width: 1.4; stroke-linecap: round"/>
   </g>
   <g id="patch_16">
    <path d="M 306.30317 255.2736 
Q 332.150341 255.2736 356.432264 255.2736 
" clip-path="url(#p9e4cbda45b)" style="fill: none; stroke: #94a3b8; stroke-width: 1.4; stroke-linecap: round"/>
    <path d="M 351.232264 252.6736 
L 356.432264 255.2736 
L 351.232264 257.8736 
z
" clip-path="url(#p9e4cbda45b)" style="fill: #94a3b8; stroke: #94a3b8; stroke-width: 1.4; stroke-linecap: round"/>
   </g>
   <g id="patch_17">
    <path d="M 465.861711 253.870614 
Q 499.248029 221.016452 531.518693 189.26016 
" clip-path="url(#p9e4cbda45b)" style="fill: none; stroke: #94a3b8; stroke-width: 1.4; stroke-linecap: round"/>
    <path d="M 525.988669 191.05427 
L 531.518693 189.26016 
L 529.635967 194.760646 
z
" clip-path="url(#p9e4cbda45b)" style="fill: #94a3b8; stroke: #94a3b8; stroke-width: 1.4; stroke-linecap: round"/>
   </g>
   <g id="patch_18">
    <path d="M 536.84496 204.68832 
L 635.71104 204.68832 
Q 639.19224 204.68832 639.19224 201.48672 
L 639.19224 171.39168 
Q 639.19224 168.19008 635.71104 168.19008 
L 536.84496 168.19008 
Q 533.36376 168.19008 533.36376 171.39168 
L 533.36376 201.48672 
Q 533.36376 204.68832 536.84496 204.68832 
z
" clip-path="url(#p9e4cbda45b)" style="fill: #efecf5; stroke: #8172b3; stroke-width: 1.4; stroke-linejoin: miter"/>
   </g>
   <g id="text_1">
    <text style="font-size: 10px; font-family: 'DejaVu Sans', 'Arial', 'Helvetica', sans-serif; text-anchor: middle; fill: #1f2933" x="104.1318" y="189.198575" transform="rotate(-0 104.1318 189.198575)">token ids</text>
   </g>
   <g id="text_2">
    <text style="font-size: 8px; font-family: 'DejaVu Sans', 'Arial', 'Helvetica', sans-serif; fill: #1f2933" transform="translate(240.0778 118.534775)">vocab</text>
    <text style="font-size: 8px; font-family: 'DejaVu Sans', 'Arial', 'Helvetica', sans-serif; fill: #1f2933" transform="translate(237.0828 127.493025)">shard 0</text>
   </g>
   <g id="text_3">
    <text style="font-size: 8px; font-family: 'DejaVu Sans', 'Arial', 'Helvetica', sans-serif; fill: #1f2933" transform="translate(398.946125 118.534775)">lookup</text>
    <text style="font-size: 8px; font-family: 'DejaVu Sans', 'Arial', 'Helvetica', sans-serif; fill: #1f2933" transform="translate(395.993625 127.493025)">or logits</text>
   </g>
   <g id="text_4">
    <text style="font-size: 8px; font-family: 'DejaVu Sans', 'Arial', 'Helvetica', sans-serif; fill: #1f2933" transform="translate(240.0778 185.768375)">vocab</text>
    <text style="font-size: 8px; font-family: 'DejaVu Sans', 'Arial', 'Helvetica', sans-serif; fill: #1f2933" transform="translate(237.0828 194.726625)">shard 1</text>
   </g>
   <g id="text_5">
    <text style="font-size: 8px; font-family: 'DejaVu Sans', 'Arial', 'Helvetica', sans-serif; fill: #1f2933" transform="translate(398.946125 185.768375)">lookup</text>
    <text style="font-size: 8px; font-family: 'DejaVu Sans', 'Arial', 'Helvetica', sans-serif; fill: #1f2933" transform="translate(395.993625 194.726625)">or logits</text>
   </g>
   <g id="text_6">
    <text style="font-size: 8px; font-family: 'DejaVu Sans', 'Arial', 'Helvetica', sans-serif; fill: #1f2933" transform="translate(240.0778 253.001975)">vocab</text>
    <text style="font-size: 8px; font-family: 'DejaVu Sans', 'Arial', 'Helvetica', sans-serif; fill: #1f2933" transform="translate(237.0828 261.960225)">shard 2</text>
   </g>
   <g id="text_7">
    <text style="font-size: 8px; font-family: 'DejaVu Sans', 'Arial', 'Helvetica', sans-serif; fill: #1f2933" transform="translate(398.946125 253.001975)">lookup</text>
    <text style="font-size: 8px; font-family: 'DejaVu Sans', 'Arial', 'Helvetica', sans-serif; fill: #1f2933" transform="translate(395.993625 261.960225)">or logits</text>
   </g>
   <g id="text_8">
    <text style="font-size: 8px; font-family: 'DejaVu Sans', 'Arial', 'Helvetica', sans-serif; fill: #1f2933" transform="translate(566.523625 184.167575)">AllReduce</text>
    <text style="font-size: 8px; font-family: 'DejaVu Sans', 'Arial', 'Helvetica', sans-serif; fill: #1f2933" transform="translate(563.03925 193.125825)">small result</text>
   </g>
   <g id="text_9">
    <text style="font-size: 13.2px; font-family: 'DejaVu Sans', 'Arial', 'Helvetica', sans-serif; text-anchor: middle" x="360" y="21.96" transform="rotate(-0 360 21.96)">Vocab-parallel embedding and loss avoid gathering huge logits</text>
   </g>
  </g>
 </g>
 <defs>
  <clipPath id="p9e4cbda45b">
   <rect x="11.88" y="27.96" width="696.24" height="320.16"/>
  </clipPath>
 </defs>
</svg>
